<?xml version="1.0" encoding="UTF-8"?>
<!DOCTYPE svg PUBLIC "-//W3C//DTD SVG 1.0//EN" "http://www.w3.org/TR/2001/REC-SVG-20010904/DTD/svg10.dtd">
<!-- Creator: CorelDRAW 2021 (64-Bit) -->
<svg xmlns="http://www.w3.org/2000/svg" xml:space="preserve" width="2550px" height="3300px" version="1.0" style="shape-rendering:geometricPrecision; text-rendering:geometricPrecision; image-rendering:optimizeQuality; fill-rule:evenodd; clip-rule:evenodd"
viewBox="0 0 2550 3300"
 xmlns:xlink="http://www.w3.org/1999/xlink"
 xmlns:xodm="http://www.corel.com/coreldraw/odm/2003">
 <defs>
  <style type="text/css">
   <![CDATA[
    .fil5 {fill:#020202}
    .fil4 {fill:#111115}
    .fil2 {fill:#CA1B25}
    .fil0 {fill:#F3EB1A}
    .fil1 {fill:#FDCD09}
    .fil3 {fill:#FFFFE2}
   ]]>
  </style>
 </defs>
 <g id="Layer_x0020_1">
  <metadata id="CorelCorpID_0Corel-Layer"/>
  <g id="_2767486964304">
   <path class="fil0" d="M1086.32 1385.89l1.1 19.51c-6.67,66.51 34.29,72.36 25.79,116.84l-9.01 4.23c78.23,60.35 -103.18,139.4 -47.7,274.35 38.55,93.77 165.2,126.15 267.15,111.32 175.1,-25.48 281.83,-136.61 252.83,-308.88 -7.97,-47.38 -27.73,-122.35 -81.12,-110.93 -27.18,22.58 -26.4,86.45 -80.57,84.86 -23.63,-0.69 -37.87,-17.72 -58.61,-24.52 -26.94,-8.83 -47.46,-3.38 -74.62,-1.26l21.98 -22.81c103.58,-104.41 13.02,-268.76 -135.85,-225.29 -55.72,16.27 -56,39.22 -81.37,82.58z"/>
   <path class="fil1" d="M1445.83 1655.44c-28.99,6.24 -45.52,25.22 -97.91,12.63 -30,-7.21 -51.7,-22.93 -82.06,-32 -87.39,-26.07 -114.97,53.21 -75.9,114.24 61.67,96.3 192.01,48.07 232.35,-5.98 12.31,-16.48 33.42,-61.61 23.52,-88.89z"/>
   <path class="fil2" d="M1104.2 1526.47l9.01 -4.23c8.5,-44.48 -32.46,-50.33 -25.79,-116.84l-1.1 -19.51c-21.44,52.21 -91.74,11.52 -107.78,25.47 -12.13,15.14 -2.42,36.12 8.15,47.29 10.87,11.49 25.55,16.77 42.78,25.39 -9.16,12.4 -22.49,12.36 -19.35,37.53 30.91,14.91 56.58,2.71 94.08,4.9z"/>
   <path class="fil3" d="M1463.35 1837.55c-50.46,21.74 -79.13,39.61 -144.42,49.17 -65.66,9.62 -119.32,2.87 -163.64,-29.14 -37.62,-27.16 -70.47,-73.82 -69.29,-127.85 1.21,-55.66 50.99,-112.02 42.6,-147.34 -2.54,7.18 -2.73,11.13 -5.39,17.96 -20.3,52.14 -54.83,93.15 -61.35,127.01 -12.49,64.97 32.13,118.45 69.06,140.79 131.87,79.79 323.31,-2.6 332.43,-30.6z"/>
   <path class="fil3" d="M1129.56 1435.62l20.75 0c19.23,-26.59 27.97,-53.85 5.3,-82.78l-22.14 -0.97c-28.59,44.18 -16.78,57.06 -3.91,83.75z"/>
   <path class="fil4" d="M1137.84 1423.67c18.8,-2.8 22.11,-14.21 23.44,-36.47 -8.08,3.8 -11.85,3.77 -21.29,1.69l-2.02 -13.58c7.64,-8.02 4.71,-3.71 13.83,-8.93 -0.27,-0.16 -3.42,-9.69 -16.87,0.21 -7.24,5.33 -22.94,37.46 2.91,57.08z"/>
   <path class="fil5" d="M1316.64 1256.49c0.47,0.39 0.23,-0.02 0.47,0.7 -0.46,0.78 0.12,0.16 -0.55,0.55l-0.15 -0.09c-0.16,0.65 0,0.13 0.02,0.13 1.69,0.32 0.58,-0.94 1.38,0.57 -0.37,0.35 -0.15,0.28 -0.75,0.54 -0.87,0.36 -0.1,0.04 -0.62,0.12 -0.67,0.11 -0.67,0 -1.19,0.22l-0.24 -0.69c-0.22,0.19 -0.1,0.08 -0.55,0.29 -0.13,0.06 -0.46,0.2 -0.62,0.28 -0.51,0.23 -0.65,0.35 -1.17,0.37l-1.35 0.21c-0.01,0 -0.06,0.01 -0.07,0.01l-0.88 0.22c-0.64,0.15 0.09,-0.01 -0.68,0.18 -2.65,0.63 -1.99,0.97 -3.03,0.48 -1.39,0.11 -1.23,0.21 -1.23,1.44 -1.2,-0.61 -1.86,0.58 -1.99,0.35 -0.03,-0.05 -0.11,0.05 -0.17,0.08 -0.05,-0.51 0.36,-0.05 -0.12,-1.06 -1.38,0.48 -0.81,1.05 -1.99,0.83 -0.05,-0.01 -0.11,-0.04 -0.17,-0.05 -1.52,-0.37 -1.65,0.05 -3.62,0.45l-3.3 0.66c-1.59,0.42 -1.16,-0.03 -2.6,0.21l-10.33 1.27c-0.52,0.1 -0.71,0.2 -1.54,0.28 -2.69,0.27 -2.96,0.73 -6.52,0.69 -2.86,-0.03 -3.57,0.38 -5.29,0.59l-5.26 0.08c-1.13,0.1 -2.48,-0.03 -3.37,0.09l-6.82 0.72c-8.31,0.16 -17.23,1.02 -26.12,1.35l-12.4 0.51c-0.39,0.03 -0.52,-0.16 -1.33,-0.18 -1.6,-0.02 -2.16,0.45 -3.55,0.1l-9.91 -0.71c-0.04,-0.05 0.41,-0.21 -0.24,-0.08 -0.81,0.16 0.15,-0.03 -0.29,0.73 -1.07,-0.38 -7.39,-0.21 -9.11,-0.29 -0.41,-0.03 -0.28,-0.02 -0.61,-0.07l-0.28 -0.08c-0.03,-0.01 -0.09,-0.03 -0.13,-0.03l-2.99 0c-0.73,0.02 -1.3,-0.23 -2.03,-0.25 -3.86,-0.11 -9.22,-0.29 -12.62,-0.69l-6 -0.31 -13.42 -0.92c-0.06,0 -0.13,0 -0.18,0 -0.06,0 -0.12,-0.01 -0.17,-0.02l-3.51 -0.31c-0.01,0 -0.07,0.01 -0.09,0.01l-0.34 0.01c-0.03,-0.01 -0.11,-0.01 -0.14,-0.02l-0.27 -0.04c-0.04,0 -0.1,-0.02 -0.14,-0.03l-0.28 -0.04c-0.03,-0.01 -0.1,-0.02 -0.14,-0.03l-2.54 -0.26c-0.96,0.02 -1.08,0.2 -1.82,0.03 -0.62,-0.14 -0.83,-0.39 -1.67,-0.47 -1.21,-0.13 -2.43,-0.05 -3.43,-0.18 0.3,0.22 0.25,0.04 0.31,0.45 0.11,0.67 0.16,0.06 -0.15,0.47 -0.25,-0.13 -0.42,-0.18 -0.67,-0.3 -0.82,-0.39 -1.15,-0.45 -2.12,-0.37 -0.6,-0.7 -0.87,-0.97 -1.97,-0.92l-2.46 0.43c-0.04,-0.05 -0.09,-0.14 -0.11,-0.17l-0.46 -0.82c-0.81,0.04 0.43,0.3 -1.28,0.27l-2.73 -0.55c-0.43,-0.14 -0.51,-0.58 -1.01,-0.61 -1.03,-0.06 -4.45,0.82 -6.76,-0.03 -0.01,-0.03 0.01,-0.08 0.01,-0.09l0.02 -0.24c0,-0.01 -0.01,-0.06 -0.01,-0.07l-1.19 -0.69c-0.11,-0.05 -1.12,-0.21 -1.21,-0.2 -0.55,0.05 -0.3,0.04 -0.56,0.2 -1.81,1.14 0.73,0.26 -0.56,0.46 -1.06,-0.11 -1.4,-0.43 -2.14,-0.12 -0.52,0.22 0.46,0.28 -0.89,0.4 -1.16,0.11 -0.85,-0.21 -0.99,-0.31 -0.23,0.55 0.11,0.34 -0.12,1.17 -1.3,-0.09 -1.11,-0.61 -1.93,-0.97l-0.18 2.1 -0.93 0.16c0.5,0.23 0.53,-0.46 0.54,0.99 0.01,1.42 -0.06,0.78 -0.51,1l0.99 0.11c0.02,-0.05 0.11,0.02 0.16,0.05 -0.19,0.72 -0.43,1.08 -0.93,1.45 0.68,0.47 0.46,1.03 0.94,1.82 -0.76,0.65 -1.3,1.44 -2.33,1.69 0.31,0.76 -0.04,-0.04 0.36,0.48 0.29,0.38 0.04,-0.07 0.36,0.47l-0.29 3.21c0,0.06 0.06,1.76 -0.04,1.97 -0.46,0.91 -1.11,0.22 -1.49,-0.01 0.01,0.49 0.09,0.33 0.27,0.65 0.02,0.03 0.06,0.09 0.08,0.13l1.2 1.19 -0.1 3.52c1.22,-0.03 0.95,-0.02 1.68,-0.48 0.41,0.51 0.42,0.36 0.46,1.16 -0.52,-0.59 -1.21,-0.48 -2.1,-0.48 0.05,1.45 0.16,0.58 0.34,1.09 0.21,0.6 0.18,0.51 0.22,1.25 -0.05,0.03 -0.13,0.04 -0.16,0.05 -0.03,0.01 -0.12,0.03 -0.16,0.04l-0.33 0.03c-0.01,0 -0.4,-0.05 -0.53,-0.05 -0.11,1.4 0.2,1.19 -0.58,1.98 -0.06,0.07 -0.34,0.3 -0.37,0.33l-0.74 1.1c0.62,0.26 0.11,0.05 0.46,0.48 0.42,0.51 0.77,0.67 1.03,1.28l-1.15 -0.11c0.56,0.79 0.05,1.01 0.63,1.58 0.12,0.12 0.26,0.25 0.28,0.19 0.02,-0.04 0.11,0.05 0.16,0.09 -0.43,1 -0.13,-0.08 -0.48,0.93l1.41 0.24c-0.39,0.88 -0.53,0.15 -1.39,0.69 0,1.95 -0.35,1.98 1.56,1.92 -0.79,0.44 -0.45,0 -0.93,0.88 0.38,0.63 0.66,0.09 0.92,0.93 -0.82,0.4 -0.53,0.05 -1.35,0.68 0.37,1.3 0.11,-0.09 0.43,0.84 0.19,0.56 -0.16,-0.05 0.18,0.67 0.46,0.99 0.58,-0.14 0.53,1.99 -1.34,-0.74 -0.18,-1.08 -1.8,-1.11l0 1.83c-0.57,0.35 -1.23,0.5 -1.8,0.82 0,1.31 0.04,2.78 0,4.07 -0.02,0.63 -0.17,1.57 -0.14,2.12 0.09,1.26 -0.05,0.42 0.34,0.79l0.66 0.39c-0.29,0.14 -0.65,0.27 -0.93,0.43l-0.23 4.91c-0.33,0.94 -0.33,2.3 -0.13,3.37l0.1 0.52c-0.02,0.54 -0.13,1.2 0.12,1.79 0.46,1.03 0.54,0.52 0.85,1.34 -0.18,0.12 -0.34,0.2 -0.57,0.35 -0.12,0.08 -0.25,0.26 -0.28,0.2 -0.02,-0.04 -0.1,0.07 -0.14,0.1 0.84,1.73 -0.58,0.82 0.28,3.26l-0.86 0.19c0.74,1.77 -0.07,2.56 0.16,4.26 0.12,0.93 0.02,1.65 0.06,2.56 0.04,1.43 0.27,0.64 0.67,1.85 -0.28,0.51 -0.26,0.47 -0.3,1.26 -1.06,-0.45 0.68,0.66 -0.4,-0.36 -0.15,-0.13 0.32,-0.02 -0.2,-0.19 -0.15,1.34 0.09,0.03 -0.51,0.73 -0.49,0.57 -0.5,-0.56 -0.28,0.39 0.89,0.7 -0.3,0.16 0.88,0.81 0.38,0.21 0.83,0.42 1.19,0.39 0.29,0.4 0.3,0.36 0.26,0.61l0.7 0.25 0.7 0.23c0.62,0.21 1.1,0.51 1.61,0.57l5.18 2c0.95,0.38 1.36,0.21 2.18,0.6 0.06,0.02 0.11,0.06 0.16,0.09 0.01,0 0.28,0.2 0.42,0.27l4.59 1.24c1.79,0.6 0.67,0.12 1.01,0.99 4.3,0.74 1.45,1.05 4.65,0.97 3.57,-0.09 2.35,-0.07 5.3,0.6l10.2 1.45c4.69,0.71 11.4,1.14 15.63,1.93 0.82,0.16 1.65,0.07 2.56,0.24 0.73,0.14 1.76,0.46 2.48,0.55l7.96 0.65c1.38,0.18 1.87,-0.13 2.68,-0.08 0.6,0.04 2.71,0.48 5.15,0.58 8.16,0.35 16.98,1.29 25.18,1.06 0.72,-0.02 2.15,-0.23 2.7,0.25 4.04,-0.42 9.39,-0.12 13.61,-0.2 13.55,-0.29 25.54,-0.73 39.16,-2.02 15,-1.42 20.28,-1.42 36.16,-4.82 2,-0.43 3.58,-0.82 5.62,-1.21 2.1,-0.39 3.78,-1.12 5.79,-1.36 2.61,-1.05 9.97,-2.89 12.22,-4.6l2.24 -1.94c0.53,-0.51 0.28,-0.42 1.01,-0.72 0.04,-0.43 0.05,-0.44 0.21,-0.82 0.14,-0.3 0.13,-0.26 0.27,-0.47 0.24,-0.34 0.14,-0.22 0.4,-0.46l0.1 -9.71c-0.13,-9.99 0.11,-20.73 0.08,-30.76l-0.08 -40.08c-0.88,-0.36 -2.1,-0.45 -2.8,0.41 -0.01,0.01 -0.56,1.04 -1.12,0.52zm-216.24 81.99c-0.22,-0.95 -0.21,0.18 0.28,-0.39 0.6,-0.7 0.36,0.61 0.51,-0.73 0.52,0.17 0.05,0.06 0.2,0.19 1.08,1.02 -0.66,-0.09 0.4,0.36 0.04,-0.79 0.02,-0.75 0.3,-1.26 -0.4,-1.21 -0.63,-0.42 -0.67,-1.85 -0.04,-0.91 0.06,-1.63 -0.06,-2.56 -0.23,-1.7 0.58,-2.49 -0.16,-4.26l0.86 -0.19c-0.86,-2.44 0.56,-1.53 -0.28,-3.26 0.04,-0.03 0.12,-0.14 0.14,-0.1 0.03,0.06 0.16,-0.12 0.28,-0.2 0.23,-0.15 0.39,-0.23 0.57,-0.35 -0.31,-0.82 -0.39,-0.31 -0.85,-1.34 -0.25,-0.59 -0.14,-1.25 -0.12,-1.79l-0.1 -0.52c-0.2,-1.07 -0.2,-2.43 0.13,-3.37l0.23 -4.91c0.28,-0.16 0.64,-0.29 0.93,-0.43l-0.66 -0.39c-0.39,-0.37 -0.25,0.47 -0.34,-0.79 -0.03,-0.55 0.12,-1.49 0.14,-2.12 0.04,-1.29 0,-2.76 0,-4.07 0.57,-0.32 1.23,-0.47 1.8,-0.82l0 -1.83c1.62,0.03 0.46,0.37 1.8,1.11 0.05,-2.13 -0.07,-1 -0.53,-1.99 -0.34,-0.72 0.01,-0.11 -0.18,-0.67 -0.32,-0.93 -0.06,0.46 -0.43,-0.84 0.82,-0.63 0.53,-0.28 1.35,-0.68 -0.26,-0.84 -0.54,-0.3 -0.92,-0.93 0.48,-0.88 0.14,-0.44 0.93,-0.88 -1.91,0.06 -1.56,0.03 -1.56,-1.92 0.86,-0.54 1,0.19 1.39,-0.69l-1.41 -0.24c0.35,-1.01 0.05,0.07 0.48,-0.93 -0.05,-0.04 -0.14,-0.13 -0.16,-0.09 -0.02,0.06 -0.16,-0.07 -0.28,-0.19 -0.58,-0.57 -0.07,-0.79 -0.63,-1.58l1.15 0.11c-0.26,-0.61 -0.61,-0.77 -1.03,-1.28 -0.35,-0.43 0.16,-0.22 -0.46,-0.48l0.74 -1.1c0.03,-0.03 0.31,-0.26 0.37,-0.33 0.78,-0.79 0.47,-0.58 0.58,-1.98 0.13,0 0.52,0.05 0.53,0.05l0.33 -0.03c0.04,-0.01 0.13,-0.03 0.16,-0.04 0.03,-0.01 0.11,-0.02 0.16,-0.05 -0.04,-0.74 -0.01,-0.65 -0.22,-1.25 -0.18,-0.51 -0.29,0.36 -0.34,-1.09 0.89,0 1.58,-0.11 2.1,0.48 -0.04,-0.8 -0.05,-0.65 -0.46,-1.16 -0.73,0.46 -0.46,0.45 -1.68,0.48l0.1 -3.52 -1.2 -1.19c-0.02,-0.04 -0.06,-0.1 -0.08,-0.13 -0.18,-0.32 -0.26,-0.16 -0.27,-0.65 0.38,0.23 1.03,0.92 1.49,0.01 0.1,-0.21 0.04,-1.91 0.04,-1.97l0.29 -3.21c-0.32,-0.54 -0.07,-0.09 -0.36,-0.47 -0.4,-0.52 -0.05,0.28 -0.36,-0.48 1.03,-0.25 1.57,-1.04 2.33,-1.69 -0.48,-0.79 -0.26,-1.35 -0.94,-1.82 0.5,-0.37 0.74,-0.73 0.93,-1.45 -0.05,-0.03 -0.14,-0.1 -0.16,-0.05l-0.99 -0.11c0.45,-0.22 0.52,0.42 0.51,-1 -0.01,-1.45 -0.04,-0.76 -0.54,-0.99l0.93 -0.16 0.18 -2.1c0.82,0.36 0.63,0.88 1.93,0.97 0.23,-0.83 -0.11,-0.62 0.12,-1.17 0.14,0.1 -0.17,0.42 0.99,0.31 1.35,-0.12 0.37,-0.18 0.89,-0.4 0.74,-0.31 1.08,0.01 2.14,0.12 1.29,-0.2 -1.25,0.68 0.56,-0.46 0.26,-0.16 0.01,-0.15 0.56,-0.2 0.09,-0.01 1.1,0.15 1.21,0.2l1.19 0.69c0,0.01 0.01,0.06 0.01,0.07l-0.02 0.24c0,0.01 -0.02,0.06 -0.01,0.09 2.31,0.85 5.73,-0.03 6.76,0.03 0.5,0.03 0.58,0.47 1.01,0.61l2.73 0.55c1.71,0.03 0.47,-0.23 1.28,-0.27l0.46 0.82c0.02,0.03 0.07,0.12 0.11,0.17l2.46 -0.43c1.1,-0.05 1.37,0.22 1.97,0.92 0.97,-0.08 1.3,-0.02 2.12,0.37 0.25,0.12 0.42,0.17 0.67,0.3 0.31,-0.41 0.26,0.2 0.15,-0.47 -0.06,-0.41 -0.01,-0.23 -0.31,-0.45 1,0.13 2.22,0.05 3.43,0.18 0.84,0.08 1.05,0.33 1.67,0.47 0.74,0.17 0.86,-0.01 1.82,-0.03l2.54 0.26c0.04,0.01 0.11,0.02 0.14,0.03l0.28 0.04c0.04,0.01 0.1,0.03 0.14,0.03l0.27 0.04c0.03,0.01 0.11,0.01 0.14,0.02l0.34 -0.01c0.02,0 0.08,-0.01 0.09,-0.01l3.51 0.31c0.05,0.01 0.11,0.02 0.17,0.02 0.05,0 0.12,0 0.18,0l13.42 0.92c-0.03,-0.03 -0.08,-0.09 -0.09,-0.07l-0.86 -0.86c1.54,-0.03 1.55,-0.28 2.82,-0.22l2.66 -0.11c0.47,-0.12 0.74,-0.51 0.74,-1.13 -0.01,-0.43 -0.04,-0.23 -0.12,-0.48 -0.21,-0.6 -0.1,0.31 -0.29,-0.63l1.27 -0.49c0.08,2.24 -0.69,-0.09 -0.19,1.48 0.27,0.84 -0.02,0.14 0.39,0.81 0.24,0.39 0.13,-0.11 0.52,0.83 0.02,-0.07 0.1,-0.29 0.13,-0.33 0.42,-0.61 0.11,-0.24 0.46,-0.49 0.87,1.67 -0.04,0.28 2.1,0.87l0.51 -1.13 0.42 1.05 5.23 -0.15c0.04,0.01 0.1,0.03 0.13,0.04l7.95 0.04c0.85,-0.09 1.46,-0.09 2.3,-0.06l0.47 -0.61c0.6,0.71 1.05,0.51 2.14,0.6 1.71,0.15 3.39,-0.36 5.55,0.12l0.21 -0.28c0,0 0.24,-0.4 0.25,-0.42 0.68,0.86 0.58,0.54 2.09,0.55l14.46 -0.11c1.4,-0.19 1.86,0.03 3.02,-0.04 1.65,-0.1 0.27,-0.49 2.11,0.03 0.35,-0.53 0.15,-0.38 0.42,-0.93 0.2,1.03 -0.24,0.29 0.52,0.65 1.45,0.68 3.42,0.06 4.97,0.07 1.22,0 1.09,0.9 2.36,-0.4 0.68,1.17 5.45,0.53 6.58,0.51 0.35,0 0.95,0.05 1.47,-0.03 1.11,-0.18 0.18,-0.04 0.6,-0.2 0.95,-0.38 -0.87,0.11 0.18,-0.1 0.01,0 0.07,-0.01 0.09,-0.01l0.37 0.09c0.05,0.01 0.12,0.03 0.17,0.05 0.93,0.23 1.5,-0.03 2.54,0.23l0 -0.54c0.15,0.03 0.76,0.16 0.77,0.16l2.33 0.1c1.99,0.34 -0.01,-0.25 3.32,0.07 0.48,-1.1 -0.08,-0.64 0.8,-1.16 0.04,0.01 0.11,0 0.13,0.06l1.32 0.74c0.02,-0.02 0.1,-0.09 0.12,-0.11 0.41,-0.32 -0.47,0.04 0.3,-0.17l0.52 0.38c0.04,0.02 0.11,0.07 0.14,0.09 0.05,0.03 0.24,0.15 0.31,0.19 0.65,-1 1.68,-0.19 2.4,-0.35 0.71,-0.15 0.1,0 0.34,-0.2l0.48 -0.5c1.04,0.53 0.73,0.24 2.07,0.21l0.14 0.42c0.02,-0.03 0.08,-0.13 0.12,-0.2 0.6,0.31 0.37,0.1 0.7,0.67l0.7 -0.9 4.36 -0.38c1.57,-0.46 0.39,-0.76 1.51,-1.06 0.03,-0.01 0.11,-0.02 0.14,-0.02 0.67,-0.1 0.72,-0.01 0.98,0.29 0.02,0.02 0.06,0.09 0.08,0.12l1.7 -0.23c0.82,-0.44 0.49,-0.1 1.03,-0.05 1.63,0.13 2.33,-0.79 2.78,-0.89 1.11,0.15 0.2,0.76 2.23,0.33 0.18,-0.04 0.8,-0.29 0.83,-0.32 0.4,-0.34 -0.01,0 0.2,-0.76 0.79,0.23 -0.01,-0.1 0.81,0.89 0.51,-0.47 0.09,0.02 0.41,-0.49 0.02,-0.04 0.06,-0.11 0.08,-0.15l0.1 -0.26c0.52,0.87 -0.01,0.24 0.55,0.57l1.13 0.24c0.73,-0.82 0,0.57 0.07,-0.22 0.05,-0.57 -0.86,-0.99 -0.18,-0.86 0.01,0 0.08,0.03 0.1,0.03 0.87,0.19 1.6,-0.38 2.29,-0.58 0.35,1.05 0.52,0.42 0.88,0.99 0.02,0.03 0.06,0.09 0.07,0.13 0.3,0.66 -0.08,0.91 0.45,1.39 0.47,-0.67 -0.06,-1.46 -0.23,-2.22 0.92,0.3 1.17,-0.3 2.79,0.1l1.88 -0.81c0.03,0 0.11,0.01 0.17,-0.01 -0.08,-1.09 -0.22,-0.58 -0.25,-1.2 0.87,-0.16 -0.05,0.13 1.75,0.78 0.42,0.15 0.28,0.28 1.25,0.3 2.1,0.02 1.62,0.28 3.13,-0.52 1.93,1.32 0.92,0.53 2.93,0.84 0.07,0.01 0.53,0.18 1.03,0.24 0.11,1.18 0.2,1.19 1.16,1.27 0.04,-0.06 0.07,-0.23 0.08,-0.2 0.01,0.03 0.05,-0.15 0.06,-0.2l0.11 -0.94c0.01,-0.03 0.02,-0.1 0.03,-0.13l0.42 -0.57c0.03,-0.03 0.1,-0.08 0.13,-0.13 -0.12,-0.09 -0.67,-0.47 -0.91,-0.23 0.72,-0.56 0.53,-0.75 1.87,-0.76 2.38,-0.01 3.41,-0.05 5.6,0.65 0.72,0.23 2.23,0.14 3.15,0.18l-0.48 0.52c1.04,0.49 0.38,0.15 3.03,-0.48 0.77,-0.19 0.04,-0.03 0.68,-0.18l0.88 -0.22c0.01,0 0.06,-0.01 0.07,-0.01l1.35 -0.21c0.52,-0.02 0.66,-0.14 1.17,-0.37 0.16,-0.08 0.49,-0.22 0.62,-0.28 0.45,-0.21 0.33,-0.1 0.55,-0.29l0.24 0.69c0.52,-0.22 0.52,-0.11 1.19,-0.22 0.52,-0.08 -0.25,0.24 0.62,-0.12 0.6,-0.26 0.38,-0.19 0.75,-0.54 -0.8,-1.51 0.31,-0.25 -1.38,-0.57 -0.02,0 -0.18,0.52 -0.02,-0.13l0.15 0.09c0.67,-0.39 0.09,0.23 0.55,-0.55 -0.24,-0.72 0,-0.31 -0.47,-0.7 -0.52,0.71 -1.31,0.95 -2.12,1.42 -0.29,0.18 -0.73,0.46 -1.08,0.56 -0.64,0.17 -0.91,0.04 -1.22,-0.12l0.38 -0.24c0.06,-0.03 0.12,-0.07 0.18,-0.1l1.41 -0.76c1.33,-0.88 0.22,-0.89 1.46,-2.01 0.15,-0.14 0.22,-0.13 0.36,-0.29 0.17,-0.2 0.28,-0.56 0.33,-0.9 0.08,-0.66 -0.48,-0.35 0.68,-1.87 -4.01,-3.67 -33.84,-6.18 -41.85,-6.37 -7.72,-0.19 -15.61,-0.54 -23.31,-0.98 -1.7,-0.09 -10.83,-0.51 -11.82,-0.19 -1.08,0.34 -0.65,0.89 -1.98,0.29 -1.84,-0.82 -18.33,-0.15 -20.68,-0.11l-23.88 0.44c-6.29,0.66 -11.62,0.01 -17.48,0.67l-16.19 0.59c-2.96,0.07 -10.17,0.23 -12.81,0.7 -0.98,0.17 -0.29,0.16 -1.3,0.11 -1.05,-0.07 -1.71,0.1 -2.67,0.13 -1.12,0.03 -3.87,-0.02 -4.67,0.42 -1.44,0.78 0.71,-0.04 -0.46,0.32 -0.66,-0.9 -1.69,-0.37 -3.34,-0.18 -2.62,0.3 -9.44,0.63 -11.32,1.04 -6.49,1.42 -12.76,0.49 -20.56,4.4 -0.6,0.31 0.07,-0.02 -0.32,0.15 -2.11,0.94 -2.83,1.42 -2.82,4.27 0.02,5.39 -0.27,10.96 -0.15,16.32 0.34,16.12 -0.25,32.51 -0.19,48.7l-0.04 12.35c-0.03,1.41 -0.14,2.83 1.22,3.23zm64.33 -71.27l6 0.31c3.4,0.4 8.76,0.58 12.62,0.69 0.73,0.02 1.3,0.27 2.03,0.25l2.99 0c0.04,0 0.1,0.02 0.13,0.03l0.28 0.08c0.33,0.05 0.2,0.04 0.61,0.07 1.72,0.08 8.04,-0.09 9.11,0.29 0.44,-0.76 -0.52,-0.57 0.29,-0.73 0.65,-0.13 0.2,0.03 0.24,0.08l9.91 0.71c1.39,0.35 1.95,-0.12 3.55,-0.1 0.81,0.02 0.94,0.21 1.33,0.18l12.4 -0.51c8.89,-0.33 17.81,-1.19 26.12,-1.35l6.82 -0.72c0.89,-0.12 2.24,0.01 3.37,-0.09l5.26 -0.08c1.72,-0.21 2.43,-0.62 5.29,-0.59 3.56,0.04 3.83,-0.42 6.52,-0.69 0.83,-0.08 1.02,-0.18 1.54,-0.28l10.33 -1.27c1.44,-0.24 1.01,0.21 2.6,-0.21l3.3 -0.66c1.97,-0.4 2.1,-0.82 3.62,-0.45 0.06,0.01 0.12,0.04 0.17,0.05 1.18,0.22 0.61,-0.35 1.99,-0.83 0.48,1.01 0.07,0.55 0.12,1.06 0.06,-0.03 0.14,-0.13 0.17,-0.08 0.13,0.23 0.79,-0.96 1.99,-0.35 0,-1.23 -0.16,-1.33 1.23,-1.44l0.48 -0.52c-0.92,-0.04 -2.43,0.05 -3.15,-0.18 -2.19,-0.7 -3.22,-0.66 -5.6,-0.65 -1.34,0.01 -1.15,0.2 -1.87,0.76 0.24,-0.24 0.79,0.14 0.91,0.23 -0.03,0.05 -0.1,0.1 -0.13,0.13l-0.42 0.57c-0.01,0.03 -0.02,0.1 -0.03,0.13l-0.11 0.94c-0.01,0.05 -0.05,0.23 -0.06,0.2 -0.01,-0.03 -0.04,0.14 -0.08,0.2 -0.96,-0.08 -1.05,-0.09 -1.16,-1.27 -0.5,-0.06 -0.96,-0.23 -1.03,-0.24 -2.01,-0.31 -1,0.48 -2.93,-0.84 -1.51,0.8 -1.03,0.54 -3.13,0.52 -0.97,-0.02 -0.83,-0.15 -1.25,-0.3 -1.8,-0.65 -0.88,-0.94 -1.75,-0.78 0.03,0.62 0.17,0.11 0.25,1.2 -0.06,0.02 -0.14,0.01 -0.17,0.01l-1.88 0.81c-1.62,-0.4 -1.87,0.2 -2.79,-0.1 0.17,0.76 0.7,1.55 0.23,2.22 -0.53,-0.48 -0.15,-0.73 -0.45,-1.39 -0.01,-0.04 -0.05,-0.1 -0.07,-0.13 -0.36,-0.57 -0.53,0.06 -0.88,-0.99 -0.69,0.2 -1.42,0.77 -2.29,0.58 -0.02,0 -0.09,-0.03 -0.1,-0.03 -0.68,-0.13 0.23,0.29 0.18,0.86 -0.07,0.79 0.66,-0.6 -0.07,0.22l-1.13 -0.24c-0.56,-0.33 -0.03,0.3 -0.55,-0.57l-0.1 0.26c-0.02,0.04 -0.06,0.11 -0.08,0.15 -0.32,0.51 0.1,0.02 -0.41,0.49 -0.82,-0.99 -0.02,-0.66 -0.81,-0.89 -0.21,0.76 0.2,0.42 -0.2,0.76 -0.03,0.03 -0.65,0.28 -0.83,0.32 -2.03,0.43 -1.12,-0.18 -2.23,-0.33 -0.45,0.1 -1.15,1.02 -2.78,0.89 -0.54,-0.05 -0.21,-0.39 -1.03,0.05l-1.7 0.23c-0.02,-0.03 -0.06,-0.1 -0.08,-0.12 -0.26,-0.3 -0.31,-0.39 -0.98,-0.29 -0.03,0 -0.11,0.01 -0.14,0.02 -1.12,0.3 0.06,0.6 -1.51,1.06l-4.36 0.38 -0.7 0.9c-0.33,-0.57 -0.1,-0.36 -0.7,-0.67 -0.04,0.07 -0.1,0.17 -0.12,0.2l-0.14 -0.42c-1.34,0.03 -1.03,0.32 -2.07,-0.21l-0.48 0.5c-0.24,0.2 0.37,0.05 -0.34,0.2 -0.72,0.16 -1.75,-0.65 -2.4,0.35 -0.07,-0.04 -0.26,-0.16 -0.31,-0.19 -0.03,-0.02 -0.1,-0.07 -0.14,-0.09l-0.52 -0.38c-0.77,0.21 0.11,-0.15 -0.3,0.17 -0.02,0.02 -0.1,0.09 -0.12,0.11l-1.32 -0.74c-0.02,-0.06 -0.09,-0.05 -0.13,-0.06 -0.88,0.52 -0.32,0.06 -0.8,1.16 -3.33,-0.32 -1.33,0.27 -3.32,-0.07l-2.33 -0.1c-0.01,0 -0.62,-0.13 -0.77,-0.16l0 0.54c-1.04,-0.26 -1.61,0 -2.54,-0.23 -0.05,-0.02 -0.12,-0.04 -0.17,-0.05l-0.37 -0.09c-0.02,0 -0.08,0.01 -0.09,0.01 -1.05,0.21 0.77,-0.28 -0.18,0.1 -0.42,0.16 0.51,0.02 -0.6,0.2 -0.52,0.08 -1.12,0.03 -1.47,0.03 -1.13,0.02 -5.9,0.66 -6.58,-0.51 -1.27,1.3 -1.14,0.4 -2.36,0.4 -1.55,-0.01 -3.52,0.61 -4.97,-0.07 -0.76,-0.36 -0.32,0.38 -0.52,-0.65 -0.27,0.55 -0.07,0.4 -0.42,0.93 -1.84,-0.52 -0.46,-0.13 -2.11,-0.03 -1.16,0.07 -1.62,-0.15 -3.02,0.04l-14.46 0.11c-1.51,-0.01 -1.41,0.31 -2.09,-0.55 -0.01,0.02 -0.25,0.42 -0.25,0.42l-0.21 0.28c-2.16,-0.48 -3.84,0.03 -5.55,-0.12 -1.09,-0.09 -1.54,0.11 -2.14,-0.6l-0.47 0.61c-0.84,-0.03 -1.45,-0.03 -2.3,0.06l-7.95 -0.04c-0.03,-0.01 -0.09,-0.03 -0.13,-0.04l-5.23 0.15 -0.42 -1.05 -0.51 1.13c-2.14,-0.59 -1.23,0.8 -2.1,-0.87 -0.35,0.25 -0.04,-0.12 -0.46,0.49 -0.03,0.04 -0.11,0.26 -0.13,0.33 -0.39,-0.94 -0.28,-0.44 -0.52,-0.83 -0.41,-0.67 -0.12,0.03 -0.39,-0.81 -0.5,-1.57 0.27,0.76 0.19,-1.48l-1.27 0.49c0.19,0.94 0.08,0.03 0.29,0.63 0.08,0.25 0.11,0.05 0.12,0.48 0,0.62 -0.27,1.01 -0.74,1.13l-2.66 0.11c-1.27,-0.06 -1.28,0.19 -2.82,0.22l0.86 0.86c0.01,-0.02 0.06,0.04 0.09,0.07zm151.91 -10.72c0.56,0.52 1.11,-0.51 1.12,-0.52 0.7,-0.86 1.92,-0.77 2.8,-0.41 -0.42,-1.52 -1.97,-2.92 -3.54,-3.38 -1.16,1.52 -0.6,1.21 -0.68,1.87 -0.05,0.34 -0.16,0.7 -0.33,0.9 -0.14,0.16 -0.21,0.15 -0.36,0.29 -1.24,1.12 -0.13,1.13 -1.46,2.01l-1.41 0.76c-0.06,0.03 -0.12,0.07 -0.18,0.1l-0.38 0.24c0.31,0.16 0.58,0.29 1.22,0.12 0.35,-0.1 0.79,-0.38 1.08,-0.56 0.81,-0.47 1.6,-0.71 2.12,-1.42z"/>
  </g>
 </g>
</svg>
