<?xml version="1.0" standalone="no"?><svg xmlns="http://www.w3.org/2000/svg" viewBox="0 0 1440 320"><path fill="#00cba9" fill-opacity="1" d="M0,64L30,69.3C60,75,120,85,180,96C240,107,300,117,360,106.7C420,96,480,64,540,58.7C600,53,660,75,720,101.3C780,128,840,160,900,181.3C960,203,1020,213,1080,192C1140,171,1200,117,1260,80C1320,43,1380,21,1410,10.7L1440,0L1440,320L1410,320C1380,320,1320,320,1260,320C1200,320,1140,320,1080,320C1020,320,960,320,900,320C840,320,780,320,720,320C660,320,600,320,540,320C480,320,420,320,360,320C300,320,240,320,180,320C120,320,60,320,30,320L0,320Z"></path></svg>